<?xml version="1.0" standalone="no"?>
<!DOCTYPE svg PUBLIC "-//W3C//DTD SVG 20010904//EN"
 "http://www.w3.org/TR/2001/REC-SVG-20010904/DTD/svg10.dtd">
<svg version="1.0" xmlns="http://www.w3.org/2000/svg"
 width="469.000000pt" height="204.000000pt" viewBox="0 0 469.000000 204.000000"
 preserveAspectRatio="xMidYMid meet">

<g transform="translate(0.000000,204.000000) scale(0.100000,-0.100000)"
fill="#000000" stroke="none">
<path d="M1910 1375 l-365 -365 230 0 230 0 200 200 200 200 111 0 110 0 82
84 82 84 0 81 0 81 -258 0 -257 0 -365 -365z"/>
<path d="M2762 1427 l-82 -82 0 -335 0 -334 60 59 60 59 0 263 c0 145 4 263 8
263 4 0 36 -29 72 -65 l64 -65 -27 -28 c-26 -27 -27 -31 -27 -152 l0 -125 105
105 105 105 0 80 0 80 -128 128 -127 127 -83 -83z"/>
<path d="M2232 1117 l-212 -212 0 -248 c0 -136 2 -247 4 -247 3 0 32 28 65 62
l61 63 0 182 0 183 101 105 c56 58 106 105 110 105 5 0 9 -39 9 -88 l0 -88
-70 -69 -70 -69 0 -346 0 -345 180 180 180 180 0 145 0 144 -42 43 -42 43 42
43 42 43 0 202 0 202 -73 0 -72 0 -213 -213z"/>
<path d="M340 630 l0 -90 71 0 c39 0 79 5 90 10 21 12 26 59 8 77 -8 8 -8 17
0 30 7 15 6 25 -5 41 -13 19 -25 22 -90 22 l-74 0 0 -90z m130 40 c0 -17 -7
-20 -45 -20 -31 0 -45 4 -45 13 0 21 11 27 52 27 31 0 38 -3 38 -20z m5 -75
c0 -16 -8 -21 -39 -23 -43 -4 -62 8 -52 33 4 12 16 15 48 13 35 -2 43 -7 43
-23z"/>
<path d="M637 708 c-3 -7 -21 -48 -41 -90 l-35 -78 23 0 c19 0 29 12 53 67
l30 67 17 -31 c15 -31 15 -32 -6 -35 -35 -5 -34 -28 1 -28 20 0 34 -7 41 -20
11 -21 50 -28 50 -10 0 6 -18 46 -40 90 -33 66 -44 80 -64 80 -13 0 -26 -6
-29 -12z"/>
<path d="M790 705 c0 -10 10 -15 30 -15 l30 0 0 -76 c0 -72 1 -75 23 -72 20 3
22 9 25 76 l3 72 29 0 c20 0 30 5 30 15 0 12 -16 15 -85 15 -69 0 -85 -3 -85
-15z"/>
<path d="M1000 705 c0 -10 11 -15 35 -15 l35 0 0 -75 c0 -68 2 -75 20 -75 18
0 20 7 20 75 l0 75 35 0 c24 0 35 5 35 15 0 12 -17 15 -90 15 -73 0 -90 -3
-90 -15z"/>
<path d="M1222 633 l3 -88 73 -3 c59 -2 72 0 72 13 0 11 -12 15 -50 15 l-50 0
0 75 c0 74 0 75 -25 75 l-26 0 3 -87z"/>
<path d="M1420 705 c0 -12 16 -15 80 -15 64 0 80 3 80 15 0 12 -16 15 -80 15
-64 0 -80 -3 -80 -15z"/>
<path d="M3172 635 c-23 -47 -42 -87 -42 -90 0 -3 10 -5 23 -5 18 0 28 12 51
66 28 64 38 70 50 28 5 -16 2 -23 -14 -27 -31 -8 -24 -27 10 -27 19 0 33 -7
40 -20 10 -18 50 -29 50 -14 0 3 -18 44 -39 90 -33 70 -44 84 -63 84 -20 0
-31 -15 -66 -85z"/>
<path d="M3390 629 c0 -88 1 -90 23 -87 17 2 23 11 25 36 5 46 43 45 74 -3 15
-23 31 -35 46 -35 27 0 27 4 2 41 l-21 28 21 21 c25 25 26 52 2 73 -14 13 -38
17 -95 17 l-77 0 0 -91z m135 36 c0 -16 -8 -21 -42 -23 -40 -3 -43 -2 -43 23
0 25 3 26 43 23 34 -2 42 -7 42 -23z"/>
<path d="M3630 705 c0 -12 16 -15 85 -15 69 0 85 3 85 15 0 12 -16 15 -85 15
-69 0 -85 -3 -85 -15z"/>
<path d="M3860 630 c0 -83 1 -90 20 -90 18 0 20 7 20 63 l1 62 57 -62 c38 -41
66 -63 80 -63 21 0 22 4 22 90 0 89 0 90 -25 90 -24 0 -25 -3 -25 -57 l-1 -58
-52 58 c-34 37 -60 57 -75 57 -21 0 -22 -4 -22 -90z"/>
<path d="M4156 653 c-49 -98 -52 -113 -26 -113 17 0 28 15 52 67 30 66 30 67
44 43 17 -32 17 -40 0 -40 -7 0 -19 -7 -26 -15 -11 -13 -7 -15 23 -15 27 0 37
-5 42 -20 4 -13 15 -20 31 -20 13 0 24 2 24 5 0 3 -19 43 -42 90 -56 111 -73
114 -122 18z"/>
<path d="M1420 595 l0 -55 80 0 c64 0 80 3 80 15 0 12 -13 15 -60 15 -57 0
-60 1 -60 25 0 24 3 25 60 25 47 0 60 3 60 15 0 12 -16 15 -80 15 l-80 0 0
-55z"/>
<path d="M3634 636 c-3 -8 -4 -31 -2 -52 l3 -39 83 -3 c68 -2 82 0 82 13 0 12
-13 15 -60 15 -57 0 -60 1 -60 25 0 24 3 25 60 25 47 0 60 3 60 15 0 21 -158
22 -166 1z"/>
</g>
</svg>
